<svg xmlns="http://www.w3.org/2000/svg" viewBox="0 0 24 24" fill="none" stroke="currentColor" stroke-width="2" stroke-linecap="round" stroke-linejoin="round">
  <path d="M12 8v4l2 2" />
  <path d="M12 2a8 8 0 0 0-8 8c0 2.4.9 4.6 2.4 6.2l.3.3c.2.2.4.3.7.3H7l.3-.3c1.6-1.5 2.4-3.8 2.4-6.2a6 6 0 0 0 .1-1.5" />
  <path d="M20 8h-4l1.5-3.5L14 4l1.5 3.5L20 4l-1.5 3.5L22 8Z" />
  <circle cx="12" cy="12" r="2" />
  <path d="M18 18h-6l-1.5 3.5L9 20l1.5-3.5L6 18l1.5 3.5L9 20l-1.5 3.5L6 22l1.5-3.5L9 20l1.5 3.5L12 22l1.5-3.5L15 20l1.5 3.5L18 22l1.5-3.5L21 20l-1.5-3.5L18 18Z" />
</svg>